<svg xmlns="http://www.w3.org/2000/svg" width="40" height="40" fill="none" viewBox="0 0 40 40"><g clip-path="url(#a)"><path fill="#7F54B3" d="M5.341 9h29.304C36.499 9 38 10.465 38 12.275v10.918c0 1.81-1.5 3.275-3.355 3.275H24.136l1.442 3.448-6.343-3.448H5.356C3.502 26.468 2 25.003 2 23.193V12.275C1.986 10.48 3.487 9 5.341 9"/><path fill="#fff" d="M4.05 11.985c.205-.271.512-.414.922-.442q1.119-.087 1.273 1.028c.454 2.985.951 5.513 1.478 7.585l3.205-5.957q.44-.813 1.098-.857c.644-.043 1.039.357 1.2 1.2.366 1.9.834 3.514 1.39 4.885.38-3.628 1.024-6.242 1.932-7.856.22-.4.541-.6.966-.628.336-.029.643.071.922.285.278.215.424.486.453.815.015.257-.029.47-.146.685-.57 1.029-1.04 2.757-1.42 5.156-.365 2.329-.497 4.142-.41 5.442q.045.536-.175.943c-.176.314-.439.486-.776.514-.38.029-.775-.143-1.156-.528-1.36-1.357-2.444-3.385-3.234-6.085a265 265 0 0 0-2.107 4.114c-.863 1.614-1.595 2.442-2.21 2.485-.395.029-.731-.3-1.024-.986q-1.12-2.806-2.415-10.84c-.058-.372.03-.7.234-.958m31.45 2.243c-.527-.9-1.303-1.443-2.342-1.657a4 4 0 0 0-.79-.086c-1.405 0-2.547.714-3.44 2.143q-1.14 1.821-1.14 4.028 0 1.65.702 2.828c.527.9 1.302 1.442 2.341 1.657q.418.085.79.085c1.42 0 2.561-.714 3.44-2.142a7.5 7.5 0 0 0 1.14-4.042c.016-1.115-.233-2.043-.702-2.814m-1.844 3.956c-.205.943-.571 1.643-1.113 2.114-.424.372-.82.529-1.185.457-.351-.071-.644-.371-.863-.928a3.6 3.6 0 0 1-.264-1.3c0-.357.03-.714.103-1.043a4.6 4.6 0 0 1 .775-1.7c.483-.7.995-.985 1.522-.885.352.072.644.372.864.929.175.442.263.885.263 1.3 0 .37-.03.728-.102 1.056m-7.317-3.956c-.527-.9-1.318-1.443-2.342-1.657a4 4 0 0 0-.79-.086c-1.405 0-2.547.714-3.44 2.143q-1.14 1.821-1.14 4.028 0 1.65.702 2.828c.527.9 1.302 1.442 2.341 1.657q.418.085.79.085c1.42 0 2.561-.714 3.44-2.142a7.5 7.5 0 0 0 1.14-4.042c0-1.115-.233-2.043-.701-2.814m-1.859 3.956c-.205.943-.57 1.643-1.112 2.114-.425.372-.82.529-1.186.457-.35-.071-.643-.371-.863-.928a3.6 3.6 0 0 1-.263-1.3c0-.357.029-.714.102-1.043.132-.585.38-1.157.776-1.7.483-.7.995-.985 1.522-.885.35.072.643.372.863.929.176.442.263.885.263 1.3a4 4 0 0 1-.102 1.056"/></g><defs><clipPath id="a"><path fill="#fff" d="M2 9h36v21H2z"/></clipPath></defs></svg>